<svg viewBox="0 0 20 20" xmlns="http://www.w3.org/2000/svg">
<path d="M18.001 16.002C19.105 16.002 20 16.8969 20 18.001C20 19.105 19.105 20 18.001 20H1.99902C0.894998 20 1.36579e-05 19.105 0 18.001C0 16.8969 0.89499 16.002 1.99902 16.002H18.001Z" fill="white"/>
<path d="M18.001 8.00098C19.105 8.001 20 8.89596 20 10C20 11.104 19.105 11.999 18.001 11.999H1.99902C0.89499 11.999 0 11.104 0 10C2.83473e-06 8.89596 0.894992 8.001 1.99902 8.00098H18.001Z" fill="white"/>
<path d="M18.001 0C19.105 1.85543e-05 20 0.895001 20 1.99902C20 3.10306 19.105 3.99803 18.001 3.99805H1.99902C0.89499 3.99803 0 3.10306 0 1.99902C1.93274e-05 0.895002 0.895002 1.93916e-05 1.99902 0H18.001Z" fill="white"/>
</svg>