<svg width="75" height="25" viewBox="0 0 75 25" fill="none" xmlns="http://www.w3.org/2000/svg">
<path d="M0.00440934 2.24425C0.00440934 1.73279 0.145508 1.33596 0.427706 1.04496C0.709904 0.758363 1.09793 0.61286 1.59618 0.61286H1.6976C2.19585 0.61286 2.59269 0.758363 2.89253 1.04496C3.19236 1.33596 3.34228 1.73279 3.34228 2.24425V3.39064H8.55412V2.24425C8.55412 1.73279 8.70404 1.33596 9.00387 1.04496C9.30371 0.758363 9.70055 0.61286 10.1988 0.61286H10.3002C10.7985 0.61286 11.1865 0.758363 11.4687 1.04496C11.7509 1.33596 11.892 1.73279 11.892 2.24425V8.35978C11.892 9.53262 11.5833 10.4453 10.966 11.0979C10.3487 11.7504 9.47567 12.0767 8.34688 12.0767H3.80085C2.63678 12.0767 1.71082 11.746 1.02738 11.0846C0.343928 10.4233 0 9.51498 0 8.35978V2.24425H0.00440934ZM3.34228 8.23191C3.34228 8.7566 3.62448 9.02115 4.18887 9.02115H7.70753C8.27192 9.02115 8.55412 8.7566 8.55412 8.23191V6.4462H3.34228V8.23191ZM8.57176 24.2593C7.58847 23.7654 6.82566 23.0732 6.28772 22.1825C5.74978 21.2919 5.48081 20.2513 5.48081 19.0608C5.48081 17.8704 5.74978 16.8298 6.28772 15.9391C6.82566 15.0485 7.58847 14.3563 8.57176 13.8624C9.55504 13.3686 10.6838 13.1217 11.9493 13.1217C13.2148 13.1217 14.3436 13.3686 15.3269 13.8624C16.3101 14.3563 17.073 15.0485 17.6109 15.9391C18.1488 16.8298 18.4178 17.8704 18.4178 19.0608C18.4178 20.2513 18.1488 21.2919 17.6109 22.1825C17.073 23.0732 16.3101 23.7654 15.3269 24.2593C14.3436 24.7531 13.2148 25 11.9493 25C10.6838 25 9.55504 24.7531 8.57176 24.2593ZM9.71378 21.1376C10.3134 21.6711 11.0586 21.94 11.9493 21.94C12.84 21.94 13.5852 21.6711 14.1848 21.1376C14.7845 20.6041 15.0843 19.9118 15.0843 19.0608C15.0843 18.2099 14.7845 17.5397 14.1848 16.9973C13.5852 16.455 12.84 16.1817 11.9493 16.1817C11.0586 16.1817 10.3134 16.455 9.71378 16.9973C9.1141 17.5397 8.81427 18.2275 8.81427 19.0608C8.81427 19.8942 9.1141 20.6041 9.71378 21.1376ZM15.7502 1.52997C15.7502 1.05378 15.9045 0.678998 16.2131 0.410038C16.5218 0.13667 16.923 0.00439453 17.4213 0.00439453H17.5492C18.0474 0.00439453 18.4487 0.141079 18.7573 0.410038C19.066 0.683407 19.2203 1.05819 19.2203 1.52997V12.0018C19.2203 12.4779 19.066 12.8527 18.7573 13.1217C18.4487 13.3951 18.0474 13.5273 17.5492 13.5273H17.4213C16.923 13.5273 16.5218 13.3906 16.2131 13.1217C15.9045 12.8483 15.7502 12.4779 15.7502 12.0018V1.52997Z" fill="#FBAF27"/>
<path d="M29.2833 13.3774C28.9922 13.0379 28.8467 12.6808 28.8467 12.306C28.8467 11.9312 29.0187 11.552 29.3626 11.2081C30.6105 9.96914 31.5717 8.75662 32.2375 7.57937C32.9033 6.40212 33.2384 5.04409 33.2384 3.51411V2.26632C33.2384 1.75485 33.3751 1.35803 33.6485 1.06702C33.9219 0.780424 34.3055 0.634921 34.8038 0.634921H34.9052C35.4034 0.634921 35.787 0.780424 36.0604 1.06702C36.3338 1.35803 36.4705 1.75485 36.4705 2.26632V3.64198C36.4705 4.69577 36.3426 5.67902 36.0869 6.59612C37.7668 7.92329 39.0985 9.24604 40.095 10.5732C40.386 10.948 40.5315 11.336 40.5315 11.746C40.5315 12.2399 40.3419 12.6455 39.9671 12.9674C39.6937 13.2231 39.3498 13.351 38.9397 13.351C38.4238 13.351 38.0049 13.1393 37.6831 12.7161C37.3391 12.2751 36.907 11.7769 36.3867 11.2258C35.862 10.6746 35.3373 10.1676 34.8082 9.709C33.9704 11.1552 32.9166 12.403 31.6511 13.4568C31.2895 13.761 30.9059 13.9154 30.4958 13.9154C30.0329 13.9154 29.6316 13.739 29.2877 13.3818L29.2833 13.3774ZM33.5471 16.7416C33.5471 16.2654 33.7014 15.8907 34.0101 15.6217C34.3187 15.3483 34.72 15.2161 35.2182 15.2161C35.765 15.2161 36.2015 15.3527 36.5278 15.6217C36.8541 15.8951 37.0172 16.2654 37.0172 16.7416V17.7337C37.0172 18.9727 37.4273 19.8854 38.2519 20.4718C39.072 21.0582 40.3331 21.3492 42.0263 21.3492C42.9522 21.3492 43.909 21.2654 44.9011 21.0935C45.8932 20.9259 46.7928 20.6967 47.5997 20.4057C47.9083 20.3219 48.1464 20.2778 48.3184 20.2778C48.7285 20.2778 49.068 20.4233 49.3325 20.7099C49.5971 21.0009 49.7294 21.3713 49.7294 21.8298C49.7294 22.5617 49.2576 23.0864 48.3184 23.4083C46.4532 24.0697 44.3544 24.4004 42.0263 24.4004C39.2704 24.4004 37.1672 23.8404 35.7209 22.7205C34.2746 21.6005 33.5515 19.9691 33.5515 17.8263V16.7284L33.5471 16.7416ZM41.1753 1.88713C41.1753 1.37566 41.3208 0.978837 41.6118 0.687831C41.9028 0.396826 42.2952 0.255732 42.7935 0.255732C43.2917 0.255732 43.6842 0.401235 43.9752 0.687831C44.2662 0.978837 44.4117 1.37566 44.4117 1.88713V5.0485H46.6472V1.63139C46.6472 1.11993 46.7927 0.723105 47.0838 0.432099C47.3748 0.141094 47.7672 0 48.2655 0C48.7637 0 49.1562 0.145503 49.4472 0.432099C49.7382 0.723105 49.8837 1.11993 49.8837 1.63139V15.4938C49.8837 16.0053 49.7382 16.3977 49.4472 16.6799C49.1562 16.9621 48.7637 17.0988 48.2655 17.0988C47.7672 17.0988 47.3748 16.9577 47.0838 16.6799C46.7927 16.3977 46.6472 16.0053 46.6472 15.4938V8.10406H44.4117V14.8545C44.4117 15.366 44.2662 15.7584 43.9752 16.0406C43.6842 16.3228 43.2917 16.4594 42.7935 16.4594C42.2952 16.4594 41.9028 16.3184 41.6118 16.0406C41.3208 15.7584 41.1753 15.366 41.1753 14.8545V1.88713Z" fill="#78C143"/>
<path d="M53.0812 19.1887C53.3634 18.9154 53.7514 18.7831 54.2497 18.7831H73.4082C73.9065 18.7831 74.2945 18.9198 74.5767 19.1887C74.8589 19.4577 75 19.8325 75 20.3087C75 20.7849 74.8589 21.1596 74.5767 21.4286C74.2945 21.702 73.9065 21.8343 73.4082 21.8343H54.2497C53.7514 21.8343 53.3634 21.6976 53.0812 21.4286C52.799 21.1552 52.6579 20.7849 52.6579 20.3087C52.6579 19.8325 52.799 19.4577 53.0812 19.1887ZM58.2136 13.0203C56.957 12.2046 56.3265 10.9304 56.3265 9.19756V3.18345C56.3265 2.55734 56.5249 2.04147 56.9173 1.64024C57.3097 1.24341 57.8168 1.04059 58.4341 1.04059H69.7617C70.26 1.04059 70.648 1.18168 70.9302 1.45946C71.2124 1.73724 71.3535 2.11643 71.3535 2.59262C71.3535 3.06881 71.2168 3.45682 70.9434 3.71255C70.67 3.96828 70.2776 4.09615 69.7617 4.09615H60.1317C60.0479 4.09615 59.9686 4.12701 59.9024 4.18433C59.8319 4.24606 59.801 4.3166 59.801 4.40038V9.08733C59.801 9.80162 60.1538 10.3263 60.8548 10.6658C61.5736 11.0053 62.7288 11.1773 64.3206 11.1773C65.2289 11.1773 66.1769 11.1156 67.1734 10.9877C68.1655 10.8598 69.0298 10.6923 69.7661 10.4894C69.9557 10.4365 70.1277 10.4145 70.282 10.4145C70.7097 10.4145 71.0536 10.56 71.3094 10.8466C71.5651 11.1376 71.693 11.5256 71.693 12.0194C71.693 12.7337 71.2741 13.2187 70.4363 13.47C69.6647 13.6905 68.7211 13.8757 67.5967 14.0168C66.4767 14.1623 65.3744 14.2328 64.2985 14.2328C61.5074 14.2328 59.4835 13.8272 58.2225 13.0115L58.2136 13.0203Z" fill="#78C143"/>
</svg>
