<svg width="35" height="35" viewBox="0 0 35 35" fill="none" xmlns="http://www.w3.org/2000/svg">
<g clip-path="url(#clip0_3026_3378)">
<path d="M1.74722 27.9988H33.2466C34.2097 27.9988 34.9938 28.7829 34.9938 29.746C34.9938 32.6416 32.6416 34.9938 29.746 34.9938H5.24784C2.35227 35 0 32.6477 0 29.7522C0 28.7829 0.784089 27.9988 1.74722 27.9988Z" fill="#FBAF27"/>
<path d="M34.994 5.09967C34.994 5.06262 34.9878 5.02558 34.9817 4.98853C34.9817 4.98853 34.9817 4.98236 34.9817 4.97619C34.9384 4.69836 34.8273 4.43905 34.6668 4.21679C33.0677 1.80896 25.9924 0 17.5033 0C9.01411 0 1.93879 1.81514 0.33974 4.21679C0.179218 4.43905 0.0680869 4.69219 0.0248694 4.97619C0.0248694 4.97619 0.0248694 4.98236 0.0248694 4.98853C0.0248694 5.02558 0.0125216 5.06262 0.0125216 5.09967C0.0125216 5.14906 0.00634766 5.19845 0.00634766 5.24784C0.00634766 8.14959 2.35861 10.4957 5.25419 10.4957H29.7585C32.6603 10.4957 35.0064 8.14341 35.0064 5.24784C35.0064 5.19845 35.0064 5.14906 35.0002 5.09967H34.994Z" fill="#FBAF27"/>
<path d="M14.7991 21.0716C14.8732 20.5591 14.4719 20.0961 13.9533 20.0837C9.40924 19.9664 6.12471 19.6392 6.12471 19.2502C6.12471 18.7687 11.2182 18.3735 17.5033 18.3735C17.5588 18.3735 17.6206 18.3735 17.6761 18.3735C18.5158 18.3735 19.2381 17.7809 19.3987 16.9597C19.695 15.4224 20.4421 14.0456 21.4916 12.9652C22.0102 12.4342 21.6645 11.5328 20.9236 11.4834C19.8185 11.4094 18.6763 11.3723 17.5033 11.3723C10.6008 11.3723 4.67384 12.6997 2.16722 14.5951C0.883046 15.4718 0.00634766 17.2252 0.00634766 19.2502C0.00634766 21.2753 0.883046 23.0287 2.16722 23.9054C3.66749 25.0352 6.38402 25.9675 9.7982 26.5293C10.1501 26.5849 10.5082 26.5417 10.8292 26.3873C12.9222 25.4118 14.4533 23.4362 14.8053 21.0716H14.7991Z" fill="#F04D27"/>
<path d="M32.8392 14.5951C31.339 13.4653 28.6224 12.533 25.2082 11.9712C24.8563 11.9156 24.4982 11.9588 24.1772 12.1132C22.0842 13.0887 20.5531 15.0643 20.2012 17.4289C20.1271 17.9414 20.5284 18.4044 21.047 18.4168C25.591 18.5341 28.8756 18.8613 28.8756 19.2502C28.8756 19.7318 23.7821 20.1269 17.497 20.1269C17.4353 20.1269 17.3797 20.1269 17.318 20.1269C16.4783 20.1269 15.756 20.7196 15.6016 21.5408C15.3053 23.0781 14.5582 24.4549 13.5086 25.5353C12.99 26.0663 13.3358 26.9676 14.0766 27.017C15.1818 27.0911 16.324 27.1282 17.497 27.1282C24.3995 27.1282 30.3264 25.8008 32.833 23.9054C34.1172 23.0287 34.9939 21.2753 34.9939 19.2502C34.9939 17.2252 34.1172 15.4718 32.833 14.5951H32.8392Z" fill="#78C143"/>
</g>
<defs>
<clipPath id="clip0_3026_3378">
<rect width="35" height="35" fill="white"/>
</clipPath>
</defs>
</svg>
